<svg width="44" height="54" viewBox="0 0 44 54" fill="none" xmlns="http://www.w3.org/2000/svg">
<path d="M23.4063 0.730469H16.4313C12.7751 0.730469 9.7376 3.71172 9.7376 7.42422V9.84297H1.01885C0.456348 9.84297 0.00634766 10.293 0.00634766 10.8555V10.9117L1.4126 40.0492C1.58135 44.043 4.9001 47.193 8.89385 47.193H25.0376C27.1751 52.1992 32.9689 54.5055 37.9751 52.368C42.9814 50.2305 45.2876 44.4367 43.1501 39.4305C42.2501 37.3492 40.6751 35.6055 38.6501 34.593L39.7751 10.9117C39.7751 10.3492 39.3251 9.89922 38.8189 9.89922H30.0439V7.48047C30.0439 3.71172 27.0626 0.730469 23.4063 0.730469ZM11.7626 7.36797C11.7626 4.78047 13.8439 2.64297 16.4876 2.64297H23.4626C26.0501 2.64297 28.1876 4.72422 28.1876 7.36797V9.78672H11.7626V7.36797ZM41.3501 46.4055C40.1126 49.2742 37.2439 51.1305 34.1501 51.1305C30.7751 51.1305 27.7939 48.993 26.6689 45.843C26.3876 44.9992 26.2188 44.1555 26.2188 43.2555C26.2188 38.9242 29.7626 35.3805 34.0938 35.3805C39.7188 35.3242 43.6001 41.118 41.3501 46.4055ZM37.8064 11.7555L36.7376 33.7492C31.5063 32.2867 26.1063 35.3242 24.6438 40.5555C24.2501 42.0742 24.1376 43.6492 24.4751 45.168H8.9501C6.0251 45.168 3.5501 42.8617 3.4376 39.9367L2.0876 11.8117H9.79385V15.1305C9.79385 15.693 10.2438 16.143 10.8063 16.143C11.3688 16.143 11.8188 15.693 11.8188 15.1305V11.8117H28.1876V15.1305C28.1876 15.693 28.6376 16.143 29.2001 16.143C29.7626 16.143 30.2126 15.693 30.2126 15.1305V11.8117H37.8064V11.7555Z" fill="#1B1E6D"/>
<path d="M34.0938 38.0234C33.5313 38.0234 33.0813 38.4734 33.0813 39.0359V42.2422H29.8751C29.3126 42.2422 28.8625 42.6922 28.8625 43.2547C28.8625 43.8172 29.3126 44.2672 29.8751 44.2672H33.0813V47.4734C33.0813 48.0359 33.5313 48.4859 34.0938 48.4859C34.6563 48.4859 35.1063 48.0359 35.1063 47.4734V44.2672H38.3126C38.8751 44.2672 39.3251 43.8172 39.3251 43.2547C39.3251 42.6922 38.8751 42.2422 38.3126 42.2422H35.1063V39.0359C35.1063 38.4734 34.6563 38.0234 34.0938 38.0234Z" fill="#1B1E6D"/>
</svg>
