<svg width="20" height="20" viewBox="0 0 20 20" fill="none" xmlns="http://www.w3.org/2000/svg">
<path d="M19.3544 3.90403C19.2243 3.27154 18.9206 2.70447 18.4867 2.26827C18.3566 2.1374 18.2048 2.00654 18.0312 1.89749L18.0095 1.87568C17.9878 1.85387 17.9661 1.85387 17.9444 1.83206C17.8794 1.78844 17.8143 1.74482 17.7492 1.72301H17.7275C17.272 1.4831 16.7731 1.35224 16.2091 1.35224H14.8642V0.414395C14.8642 0.196292 14.6906 0 14.452 0C14.2351 0 14.0399 0.174482 14.0399 0.414395V1.30862H6.25241V0.414395C6.25241 0.196292 6.05718 0 5.84026 0C5.62334 0 5.42811 0.174482 5.42811 0.414395V1.30862H4.0832C3.67105 1.30862 3.2589 1.39586 2.89013 1.54853C2.47798 1.72301 2.10922 1.96292 1.80553 2.26827C1.63199 2.44275 1.48014 2.63904 1.34999 2.83533C1.21984 3.05344 1.11138 3.27154 1.02461 3.51145C0.981227 3.64231 0.937843 3.77317 0.91615 3.90403C0.872766 4.12214 0.851074 4.34024 0.851074 4.55834V6.73937V16.7939C0.851074 17.6881 1.21984 18.4951 1.78383 19.0622C2.36952 19.651 3.17213 20 4.03981 20H16.2308C17.1201 20 17.9228 19.6292 18.4867 19.0622C19.0724 18.4733 19.4195 17.6663 19.4195 16.7939V6.73937V4.55834C19.4195 4.34024 19.3978 4.12214 19.3544 3.90403ZM1.69707 4.53653C1.69707 4.36205 1.71876 4.20938 1.74045 4.05671C1.76214 3.90404 1.82722 3.75136 1.8706 3.59869C1.95737 3.4024 2.06583 3.22792 2.17429 3.07525C2.23937 2.988 2.30444 2.92257 2.36952 2.83533C2.49967 2.70447 2.65152 2.59542 2.80336 2.48637C3.17213 2.26827 3.58428 2.1374 4.03981 2.1374H5.38472V3.03162C5.38472 3.24973 5.55826 3.44602 5.79687 3.44602C6.01379 3.44602 6.20902 3.27154 6.20902 3.03162V2.1374H14.1049V3.03162C14.1049 3.24973 14.2785 3.44602 14.5171 3.44602C14.734 3.44602 14.9292 3.27154 14.9292 3.03162V2.1374H16.2742C16.7297 2.1374 17.1635 2.26827 17.5106 2.48637C17.6624 2.59542 17.8143 2.70447 17.9444 2.83533C18.2698 3.16249 18.5084 3.57688 18.5952 4.05671C18.6169 4.20938 18.6386 4.38386 18.6386 4.53653V6.32497H1.69707V4.53653ZM18.6603 16.7721C18.6603 17.4482 18.4 18.0589 17.9661 18.4951C17.5323 18.9313 16.9249 19.193 16.2742 19.193H4.0832C3.43243 19.193 2.82505 18.9313 2.39121 18.4951C1.95737 18.0589 1.69707 17.4482 1.69707 16.7939V7.13195H18.6603V16.7721Z" fill="#1B1E6D" fill-opacity="0.5"/>
</svg>
