<svg width="40" height="54" viewBox="0 0 40 54" fill="none" xmlns="http://www.w3.org/2000/svg">
<path d="M29.3262 4.28063H25.5484C25.3767 3.30001 24.872 2.40865 24.1194 1.75692C23.3668 1.10519 22.4125 0.732994 21.4174 0.703125H18.5824C17.5873 0.732785 16.6328 1.10491 15.8802 1.75667C15.1276 2.40844 14.6229 3.29992 14.4514 4.28063H10.6737C10.4126 4.28063 10.1622 4.38434 9.9776 4.56894C9.793 4.75355 9.68929 5.00393 9.68929 5.265V7.23938H5.00366C3.8479 7.24072 2.73985 7.70044 1.9226 8.51769C1.10535 9.33494 0.645627 10.443 0.644287 11.5987V48.9375C0.645627 50.0933 1.10535 51.2013 1.9226 52.0186C2.73985 52.8358 3.8479 53.2955 5.00366 53.2969H34.9962C36.1519 53.2955 37.26 52.8358 38.0772 52.0186C38.8945 51.2013 39.3542 50.0933 39.3555 48.9375V11.5987C39.3542 10.443 38.8945 9.33494 38.0772 8.51769C37.26 7.70044 36.1519 7.24072 34.9962 7.23938H30.3105V5.265C30.3104 5.00397 30.2066 4.75368 30.0221 4.56911C29.8375 4.38453 29.5872 4.28077 29.3262 4.28063ZM11.658 8.22375V6.24938H15.3368C15.5978 6.24923 15.8481 6.14547 16.0327 5.96089C16.2173 5.77632 16.321 5.52603 16.3212 5.265C16.3212 3.83513 17.3337 2.67188 18.5824 2.67188H21.4174C22.6645 2.67188 23.6787 3.83513 23.6787 5.265C23.6788 5.52603 23.7826 5.77632 23.9671 5.96089C24.1517 6.14547 24.402 6.24923 24.663 6.24938H28.3418V10.2206H11.658V8.22375ZM34.9962 9.20812C35.63 9.20887 36.2376 9.46098 36.6858 9.90914C37.1339 10.3573 37.3861 10.9649 37.3868 11.5987V48.9375C37.3861 49.5713 37.1339 50.1789 36.6858 50.6271C36.2376 51.0753 35.63 51.3274 34.9962 51.3281H5.00366C4.36986 51.3274 3.76223 51.0753 3.31406 50.6271C2.86589 50.1789 2.61378 49.5713 2.61304 48.9375V11.5987C2.61378 10.9649 2.86589 10.3573 3.31406 9.90914C3.76223 9.46098 4.36986 9.20887 5.00366 9.20812H9.68929V11.205C9.68929 11.4661 9.793 11.7165 9.9776 11.9011C10.1622 12.0857 10.4126 12.1894 10.6737 12.1894H29.3262C29.5872 12.1892 29.8375 12.0855 30.0221 11.9009C30.2066 11.7163 30.3104 11.466 30.3105 11.205V9.20812H34.9962Z" fill="#1B1E6D"/>
<path d="M10.3276 22.316C10.4569 22.3162 10.585 22.2908 10.7044 22.2413C10.8238 22.1917 10.9322 22.119 11.0234 22.0274L13.3859 19.6649C13.5706 19.4803 13.6743 19.2299 13.6743 18.9688C13.6743 18.7077 13.5706 18.4573 13.3859 18.2727C13.2013 18.0881 12.9509 17.9844 12.6898 17.9844C12.4288 17.9844 12.1784 18.0881 11.9937 18.2727L10.3282 19.9377L9.3545 18.964C9.16974 18.7794 8.9192 18.6757 8.65801 18.6759C8.39682 18.676 8.14637 18.7798 7.96175 18.9646C7.77713 19.1493 7.67348 19.3999 7.67358 19.6611C7.67369 19.9223 7.77755 20.1727 7.96231 20.3573L9.63238 22.0274C9.72354 22.1189 9.83189 22.1915 9.9512 22.2411C10.0705 22.2906 10.1984 22.316 10.3276 22.316Z" fill="#1B1E6D"/>
<path d="M30.414 21.1348C30.6751 21.1348 30.9255 21.0311 31.1101 20.8464C31.2947 20.6618 31.3984 20.4115 31.3984 20.1504C31.3984 19.8893 31.2947 19.6389 31.1101 19.4543C30.9255 19.2697 30.6751 19.166 30.414 19.166H17.2898C17.0287 19.166 16.7783 19.2697 16.5937 19.4543C16.4091 19.6389 16.3054 19.8893 16.3054 20.1504C16.3054 20.4115 16.4091 20.6618 16.5937 20.8464C16.7783 21.0311 17.0287 21.1348 17.2898 21.1348H30.414Z" fill="#1B1E6D"/>
<path d="M10.3276 29.9527C10.4569 29.9529 10.585 29.9275 10.7044 29.878C10.8238 29.8284 10.9322 29.7558 11.0234 29.6641L13.3859 27.3016C13.4773 27.2102 13.5499 27.1017 13.5993 26.9822C13.6488 26.8628 13.6743 26.7348 13.6743 26.6055C13.6743 26.4762 13.6488 26.3482 13.5993 26.2288C13.5499 26.1094 13.4773 26.0008 13.3859 25.9094C13.2945 25.818 13.186 25.7455 13.0666 25.696C12.9471 25.6466 12.8191 25.6211 12.6898 25.6211C12.5606 25.6211 12.4326 25.6466 12.3131 25.696C12.1937 25.7455 12.0852 25.818 11.9937 25.9094L10.3282 27.5744L9.3545 26.6007C9.16974 26.4161 8.9192 26.3125 8.65801 26.3126C8.39682 26.3127 8.14637 26.4165 7.96175 26.6013C7.77713 26.7861 7.67348 27.0366 7.67358 27.2978C7.67369 27.559 7.77755 27.8094 7.96231 27.994L9.63238 29.6641C9.72354 29.7556 9.83189 29.8283 9.9512 29.8778C10.0705 29.9273 10.1984 29.9528 10.3276 29.9527Z" fill="#1B1E6D"/>
<path d="M30.414 28.7715C30.6751 28.7715 30.9255 28.6678 31.1101 28.4832C31.2947 28.2986 31.3984 28.0482 31.3984 27.7871C31.3984 27.526 31.2947 27.2757 31.1101 27.0911C30.9255 26.9064 30.6751 26.8027 30.414 26.8027H17.2898C17.0287 26.8027 16.7783 26.9064 16.5937 27.0911C16.4091 27.2757 16.3054 27.526 16.3054 27.7871C16.3054 28.0482 16.4091 28.2986 16.5937 28.4832C16.7783 28.6678 17.0287 28.7715 17.2898 28.7715H30.414Z" fill="#1B1E6D"/>
<path d="M10.3278 37.5894C10.5888 37.5893 10.8391 37.4855 11.0236 37.3008L13.3861 34.9383C13.5707 34.7537 13.6745 34.5033 13.6745 34.2422C13.6745 33.9812 13.5707 33.7308 13.3861 33.5461C13.2015 33.3615 12.9511 33.2578 12.69 33.2578C12.4289 33.2578 12.1786 33.3615 11.9939 33.5461L10.3278 35.2123L9.35413 34.2391C9.16843 34.0599 8.91976 33.9607 8.66166 33.963C8.40356 33.9653 8.15669 34.0689 7.97421 34.2514C7.79174 34.434 7.68826 34.6809 7.68607 34.939C7.68388 35.1971 7.78315 35.4457 7.9625 35.6313L9.63256 37.3008C9.81693 37.4853 10.067 37.5891 10.3278 37.5894Z" fill="#1B1E6D"/>
<path d="M30.414 36.4082C30.6751 36.4082 30.9255 36.3045 31.1101 36.1199C31.2947 35.9353 31.3984 35.6849 31.3984 35.4238C31.3984 35.1628 31.2947 34.9124 31.1101 34.7278C30.9255 34.5432 30.6751 34.4395 30.414 34.4395H17.2898C17.0287 34.4395 16.7783 34.5432 16.5937 34.7278C16.4091 34.9124 16.3054 35.1628 16.3054 35.4238C16.3054 35.6849 16.4091 35.9353 16.5937 36.1199C16.7783 36.3045 17.0287 36.4082 17.2898 36.4082H30.414Z" fill="#1B1E6D"/>
<path d="M10.3277 45.2242C10.457 45.2244 10.5851 45.199 10.7045 45.1495C10.8239 45.0999 10.9324 45.0272 11.0235 44.9356L13.386 42.5731C13.4775 42.4817 13.55 42.3732 13.5994 42.2537C13.6489 42.1343 13.6744 42.0063 13.6744 41.877C13.6744 41.7477 13.6489 41.6197 13.5994 41.5003C13.55 41.3808 13.4775 41.2723 13.386 41.1809C13.2946 41.0895 13.1861 41.017 13.0667 40.9675C12.9472 40.918 12.8192 40.8926 12.69 40.8926C12.5607 40.8926 12.4327 40.918 12.3132 40.9675C12.1938 41.017 12.0853 41.0895 11.9939 41.1809L10.3283 42.8459L9.35461 41.8722C9.16962 41.6876 8.91887 41.584 8.65752 41.5843C8.39617 41.5846 8.14563 41.6886 7.96102 41.8736C7.7764 42.0586 7.67283 42.3094 7.6731 42.5707C7.67336 42.8321 7.77743 43.0826 7.96242 43.2672L9.63248 44.9373C9.72378 45.0285 9.8322 45.1008 9.95151 45.15C10.0708 45.1993 10.1987 45.2245 10.3277 45.2242Z" fill="#1B1E6D"/>
<path d="M30.414 44.043C30.6751 44.043 30.9255 43.9393 31.1101 43.7547C31.2947 43.57 31.3984 43.3197 31.3984 43.0586C31.3984 42.7975 31.2947 42.5471 31.1101 42.3625C30.9255 42.1779 30.6751 42.0742 30.414 42.0742H17.2898C17.0287 42.0742 16.7783 42.1779 16.5937 42.3625C16.4091 42.5471 16.3054 42.7975 16.3054 43.0586C16.3054 43.3197 16.4091 43.57 16.5937 43.7547C16.7783 43.9393 17.0287 44.043 17.2898 44.043H30.414Z" fill="#1B1E6D"/>
</svg>
