<svg width="16" height="16" viewBox="0 0 16 16" fill="none" xmlns="http://www.w3.org/2000/svg">
<path d="M7.99992 4.05773C8.19061 4.05773 8.35047 4.12224 8.4795 4.25127C8.60853 4.3803 8.67304 4.54016 8.67304 4.73085C8.67304 4.92155 8.60853 5.08141 8.4795 5.21044C8.35047 5.33933 8.19061 5.40377 7.99992 5.40377C7.80922 5.40377 7.64936 5.33933 7.52034 5.21044C7.39131 5.08141 7.32679 4.92155 7.32679 4.73085C7.32679 4.54016 7.39131 4.3803 7.52034 4.25127C7.64936 4.12224 7.80922 4.05773 7.99992 4.05773ZM8.00013 7.10252C8.17735 7.10252 8.32575 7.16245 8.44534 7.28231C8.56506 7.40203 8.62492 7.55044 8.62492 7.72752V11.4775C8.62492 11.6546 8.56499 11.8031 8.44513 11.9229C8.32527 12.0427 8.17679 12.1025 7.99971 12.1025C7.82249 12.1025 7.67409 12.0427 7.5545 11.9229C7.43478 11.8031 7.37492 11.6546 7.37492 11.4775V7.72752C7.37492 7.55044 7.43485 7.40203 7.55471 7.28231C7.67457 7.16245 7.82304 7.10252 8.00013 7.10252ZM8.00138 0.083354C6.90638 0.083354 5.87714 0.291131 4.91367 0.706687C3.9502 1.12224 3.11214 1.6862 2.3995 2.39856C1.68686 3.11092 1.12263 3.94863 0.706793 4.91169C0.291099 5.87474 0.083252 6.9037 0.083252 7.99856C0.083252 9.09356 0.29103 10.1228 0.706585 11.0863C1.12214 12.0497 1.6861 12.8878 2.39846 13.6004C3.11082 14.3131 3.94853 14.8773 4.91159 15.2931C5.87464 15.7088 6.9036 15.9167 7.99846 15.9167C9.09346 15.9167 10.1227 15.7089 11.0862 15.2934C12.0496 14.8778 12.8877 14.3138 13.6003 13.6015C14.313 12.8891 14.8772 12.0514 15.293 11.0884C15.7087 10.1253 15.9166 9.09634 15.9166 8.00148C15.9166 6.90648 15.7088 5.87724 15.2933 4.91377C14.8777 3.9503 14.3137 3.11224 13.6014 2.3996C12.889 1.68696 12.0513 1.12273 11.0883 0.706895C10.1252 0.291201 9.09624 0.083354 8.00138 0.083354ZM7.99992 1.33335C9.86103 1.33335 11.4374 1.97919 12.7291 3.27085C14.0208 4.56252 14.6666 6.13891 14.6666 8.00002C14.6666 9.86113 14.0208 11.4375 12.7291 12.7292C11.4374 14.0209 9.86103 14.6667 7.99992 14.6667C6.13881 14.6667 4.56242 14.0209 3.27075 12.7292C1.97909 11.4375 1.33325 9.86113 1.33325 8.00002C1.33325 6.13891 1.97909 4.56252 3.27075 3.27085C4.56242 1.97919 6.13881 1.33335 7.99992 1.33335Z" fill="#1C1B1F"/>
</svg>
