<svg width="54" height="48" viewBox="0 0 54 48" fill="none" xmlns="http://www.w3.org/2000/svg">
<path d="M8.93306 28.6289H3.27488C2.59333 28.6296 1.93988 28.9006 1.45779 29.3824C0.975703 29.8642 0.704316 30.5174 0.703125 31.199V44.758C0.703869 45.4399 0.97506 46.0936 1.4572 46.5757C1.93933 47.0578 2.59303 47.329 3.27488 47.3298H8.93306C9.6149 47.329 10.2686 47.0578 10.7507 46.5757C11.2329 46.0936 11.5041 45.4399 11.5048 44.758V31.199C11.5036 30.5174 11.2322 29.8642 10.7501 29.3824C10.2681 28.9006 9.61461 28.6296 8.93306 28.6289ZM9.53606 44.7603C9.53591 44.9202 9.47233 45.0734 9.35928 45.1865C9.24623 45.2996 9.09294 45.3631 8.93306 45.3633H3.27488C3.115 45.3631 2.96171 45.2996 2.84865 45.1865C2.7356 45.0734 2.67202 44.9202 2.67188 44.7603V31.199C2.67202 31.039 2.73558 30.8857 2.84862 30.7725C2.96166 30.6594 3.11494 30.5957 3.27488 30.5954H8.93306C9.09299 30.5957 9.24628 30.6594 9.35932 30.7725C9.47235 30.8857 9.53591 31.039 9.53606 31.199V44.7603Z" fill="#1B1E6D"/>
<path d="M22.864 24.9473H17.2052C16.5234 24.948 15.8698 25.2192 15.3877 25.7014C14.9057 26.1835 14.6346 26.8372 14.634 27.519V44.7602C14.6346 45.442 14.9057 46.0957 15.3877 46.5779C15.8698 47.06 16.5234 47.3312 17.2052 47.332H22.864C23.5458 47.3312 24.1995 47.06 24.6817 46.5779C25.1638 46.0958 25.435 45.442 25.4357 44.7602V27.519C25.435 26.8372 25.1638 26.1835 24.6817 25.7013C24.1995 25.2192 23.5458 24.948 22.864 24.9473ZM23.467 44.7602C23.4668 44.9201 23.4032 45.0734 23.2902 45.1864C23.1771 45.2995 23.0239 45.3631 22.864 45.3632H17.2052C17.0454 45.3629 16.8923 45.2993 16.7794 45.1862C16.6664 45.0732 16.6029 44.92 16.6028 44.7602V27.519C16.6029 27.3592 16.6664 27.206 16.7794 27.093C16.8923 26.98 17.0454 26.9163 17.2052 26.916H22.864C23.0239 26.9162 23.1771 26.9797 23.2902 27.0928C23.4032 27.2058 23.4668 27.3591 23.467 27.519V44.7602Z" fill="#1B1E6D"/>
<path d="M36.7947 19.6348H31.136C30.4541 19.6355 29.8004 19.9067 29.3183 20.3888C28.8361 20.871 28.565 21.5247 28.5642 22.2065V44.7628C28.565 45.4446 28.8361 46.0983 29.3183 46.5804C29.8004 47.0626 30.4541 47.3338 31.136 47.3345H36.7947C37.4765 47.3338 38.1301 47.0626 38.6122 46.5804C39.0942 46.0983 39.3653 45.4446 39.3659 44.7628V22.2065C39.3653 21.5247 39.0942 20.871 38.6122 20.3889C38.1301 19.9067 37.4765 19.6355 36.7947 19.6348ZM37.3971 44.76C37.397 44.9197 37.3335 45.0729 37.2206 45.186C37.1076 45.299 36.9545 45.3627 36.7947 45.363H31.136C30.9761 45.3628 30.8228 45.2992 30.7097 45.1862C30.5967 45.0731 30.5331 44.9198 30.533 44.76V22.2037C30.5331 22.0438 30.5967 21.8905 30.7097 21.7775C30.8228 21.6644 30.9761 21.6009 31.136 21.6007H36.7947C36.9545 21.601 37.1076 21.6646 37.2206 21.7777C37.3335 21.8907 37.397 22.0439 37.3971 22.2037V44.76Z" fill="#1B1E6D"/>
<path d="M50.7251 14.4258H45.0669C44.385 14.4265 43.7313 14.6977 43.2492 15.1799C42.7671 15.662 42.4959 16.3157 42.4951 16.9975V44.7603C42.4959 45.4421 42.7671 46.0958 43.2492 46.578C43.7313 47.0601 44.385 47.3313 45.0669 47.332H50.7251C51.4069 47.3313 52.0606 47.0601 52.5427 46.578C53.0249 46.0958 53.2961 45.4421 53.2968 44.7603V16.9975C53.2961 16.3157 53.0249 15.662 52.5427 15.1799C52.0606 14.6977 51.4069 14.4265 50.7251 14.4258ZM51.3281 44.7603C51.3279 44.9202 51.2643 45.0735 51.1513 45.1865C51.0382 45.2996 50.8849 45.3631 50.7251 45.3633H45.0669C44.907 45.3631 44.7537 45.2996 44.6406 45.1865C44.5276 45.0735 44.464 44.9202 44.4639 44.7603V16.9975C44.464 16.8377 44.5276 16.6844 44.6406 16.5713C44.7537 16.4583 44.907 16.3947 45.0669 16.3945H50.7251C50.8849 16.3947 51.0382 16.4583 51.1513 16.5713C51.2643 16.6844 51.3279 16.8377 51.3281 16.9975V44.7603Z" fill="#1B1E6D"/>
<path d="M6.10425 22.6339C6.24137 22.6338 6.37697 22.6052 6.5025 22.5501L45.9844 5.08724L44.5534 8.37224C44.4489 8.61161 44.4439 8.88266 44.5393 9.12576C44.6347 9.36886 44.8228 9.5641 45.0622 9.66852C45.3015 9.77295 45.5726 9.77802 45.8157 9.6826C46.0588 9.58719 46.254 9.39911 46.3584 9.15974L48.7986 3.56006C48.7986 3.55387 48.8019 3.54768 48.8042 3.54149C48.8221 3.49614 48.8366 3.44951 48.8475 3.40199C48.852 3.38399 48.8593 3.36656 48.8627 3.34574C48.8752 3.27918 48.8811 3.21153 48.8801 3.14381C48.8801 3.13481 48.8801 3.12637 48.8768 3.11737C48.8744 3.05848 48.8666 2.99993 48.8537 2.94243C48.8481 2.91881 48.8385 2.89631 48.8312 2.87324C48.8217 2.83696 48.81 2.80127 48.7963 2.76637C48.7963 2.75962 48.7884 2.75399 48.7856 2.74724C48.7828 2.74049 48.7817 2.73543 48.7789 2.72981C48.7699 2.71068 48.7558 2.69493 48.7451 2.67637C48.7246 2.63922 48.7019 2.60334 48.6771 2.56893C48.6608 2.54812 48.6428 2.52956 48.6253 2.50987C48.5979 2.4785 48.5684 2.44899 48.537 2.42156C48.5162 2.40356 48.4948 2.38781 48.4729 2.37206C48.4407 2.34841 48.4071 2.32681 48.3722 2.30737C48.3474 2.29331 48.3221 2.28093 48.2963 2.26912C48.2596 2.25329 48.2221 2.23976 48.1838 2.22862C48.1658 2.22299 48.15 2.21399 48.132 2.20949L42.0564 0.695244C41.8028 0.632065 41.5345 0.672221 41.3105 0.806878C41.0865 0.941535 40.9251 1.15966 40.862 1.41328C40.7988 1.66689 40.8389 1.93521 40.9736 2.15922C41.1083 2.38323 41.3264 2.54456 41.58 2.60774L44.8723 3.42787L5.706 20.7529C5.4997 20.8443 5.33106 21.0038 5.22832 21.2047C5.12558 21.4056 5.09498 21.6356 5.14164 21.8564C5.18829 22.0772 5.30938 22.2752 5.48462 22.4174C5.65985 22.5595 5.87861 22.6371 6.10425 22.6372V22.6339Z" fill="#1B1E6D"/>
</svg>
