<svg width="24" height="24" viewBox="0 0 24 24" fill="none" xmlns="http://www.w3.org/2000/svg">
<path d="M2.95562 23.3327C2.30348 23.3327 1.75901 23.1143 1.3222 22.6775C0.885395 22.2407 0.666992 21.6962 0.666992 21.0441V2.95464C0.666992 2.3025 0.885395 1.75803 1.3222 1.32122C1.75901 0.884418 2.30348 0.666016 2.95562 0.666016H21.045C21.6972 0.666016 22.2416 0.884418 22.6784 1.32122C23.1153 1.75803 23.3337 2.3025 23.3337 2.95464V21.0441C23.3337 21.6962 23.1153 22.2407 22.6784 22.6775C22.2416 23.1143 21.6972 23.3327 21.045 23.3327H2.95562ZM2.95562 21.916H11.292V2.08268H2.95562C2.73745 2.08268 2.53758 2.17347 2.35601 2.35504C2.17444 2.53661 2.08366 2.73647 2.08366 2.95464V21.0441C2.08366 21.2622 2.17444 21.4621 2.35601 21.6437C2.53758 21.8252 2.73745 21.916 2.95562 21.916ZM12.7087 21.916H21.045C21.2632 21.916 21.4631 21.8252 21.6446 21.6437C21.8262 21.4621 21.917 21.2622 21.917 21.0441V11.9993H12.7087V21.916ZM12.7087 10.5827H21.917V2.95464C21.917 2.73647 21.8262 2.53661 21.6446 2.35504C21.4631 2.17347 21.2632 2.08268 21.045 2.08268H12.7087V10.5827Z" fill="#A1A9B8"/>
</svg>
