<svg width="34" height="34" viewBox="0 0 34 34" fill="none" xmlns="http://www.w3.org/2000/svg">
<mask id="mask0_1389_9381" style="mask-type:alpha" maskUnits="userSpaceOnUse" x="0" y="0" width="34" height="34">
<rect width="34" height="34" fill="#A1A9B8"/>
</mask>
<g mask="url(#mask0_1389_9381)">
<path d="M7.95537 28.3327C7.30323 28.3327 6.75876 28.1143 6.32196 27.6775C5.88515 27.2407 5.66675 26.6962 5.66675 26.0441V7.95464C5.66675 7.3025 5.88515 6.75803 6.32196 6.32122C6.75876 5.88442 7.30323 5.66602 7.95537 5.66602H26.0448C26.6969 5.66602 27.2414 5.88442 27.6782 6.32122C28.115 6.75803 28.3334 7.3025 28.3334 7.95464V26.0441C28.3334 26.6962 28.115 27.2407 27.6782 27.6775C27.2414 28.1143 26.6969 28.3327 26.0448 28.3327H7.95537ZM7.95537 26.916H16.2917V7.08268H7.95537C7.73721 7.08268 7.53734 7.17347 7.35577 7.35504C7.1742 7.53661 7.08341 7.73647 7.08341 7.95464V26.0441C7.08341 26.2622 7.1742 26.4621 7.35577 26.6437C7.53734 26.8252 7.73721 26.916 7.95537 26.916ZM17.7084 26.916H26.0448C26.263 26.916 26.4628 26.8252 26.6444 26.6437C26.826 26.4621 26.9167 26.2622 26.9167 26.0441V16.9993H17.7084V26.916ZM17.7084 15.5827H26.9167V7.95464C26.9167 7.73647 26.826 7.53661 26.6444 7.35504C26.4628 7.17347 26.263 7.08268 26.0448 7.08268H17.7084V15.5827Z" fill="#A1A9B8"/>
</g>
</svg>
