<svg width="34" height="34" viewBox="0 0 34 34" fill="none" xmlns="http://www.w3.org/2000/svg">
<mask id="mask0_1389_9377" style="mask-type:alpha" maskUnits="userSpaceOnUse" x="0" y="0" width="34" height="34">
<rect width="34" height="34" fill="#D9D9D9"/>
</mask>
<g mask="url(#mask0_1389_9377)">
<path d="M5.66675 26.0441V7.95464C5.66675 7.32517 5.89082 6.78636 6.33896 6.33822C6.7871 5.89008 7.3259 5.66602 7.95537 5.66602H26.0448C26.6743 5.66602 27.2131 5.89008 27.6612 6.33822C28.1093 6.78636 28.3334 7.32517 28.3334 7.95464V26.0441C28.3334 26.6735 28.1093 27.2123 27.6612 27.6605C27.2131 28.1086 26.6743 28.3327 26.0448 28.3327H7.95537C7.3259 28.3327 6.7871 28.1086 6.33896 27.6605C5.89082 27.2123 5.66675 26.6735 5.66675 26.0441ZM7.08341 12.9672H26.9167V7.95464C26.9167 7.70035 26.8351 7.49139 26.6717 7.32776C26.508 7.16438 26.2991 7.08268 26.0448 7.08268H7.95537C7.70108 7.08268 7.49212 7.16438 7.3285 7.32776C7.16511 7.49139 7.08341 7.70035 7.08341 7.95464V12.9672ZM14.1639 19.9418H19.8362V14.3838H14.1639V19.9418ZM14.1639 26.916H19.8362V21.3584H14.1639V26.916ZM7.08341 19.9418H12.7472V14.3838H7.08341V19.9418ZM21.2529 19.9418H26.9167V14.3838H21.2529V19.9418ZM7.95537 26.916H12.7472V21.3584H7.08341V26.0441C7.08341 26.2983 7.16511 26.5073 7.3285 26.6709C7.49212 26.8343 7.70108 26.916 7.95537 26.916ZM21.2529 26.916H26.0448C26.2991 26.916 26.508 26.8343 26.6717 26.6709C26.8351 26.5073 26.9167 26.2983 26.9167 26.0441V21.3584H21.2529V26.916Z" fill="white"/>
</g>
</svg>
