<svg width="24" height="24" viewBox="0 0 24 24" fill="none" xmlns="http://www.w3.org/2000/svg">
<path d="M0.666992 21.0441V2.95464C0.666992 2.32517 0.891061 1.78636 1.3392 1.33822C1.78734 0.890084 2.32614 0.666016 2.95562 0.666016H21.045C21.6745 0.666016 22.2133 0.890084 22.6614 1.33822C23.1096 1.78636 23.3337 2.32517 23.3337 2.95464V21.0441C23.3337 21.6735 23.1096 22.2123 22.6614 22.6605C22.2133 23.1086 21.6745 23.3327 21.045 23.3327H2.95562C2.32614 23.3327 1.78734 23.1086 1.3392 22.6605C0.891061 22.2123 0.666992 21.6735 0.666992 21.0441ZM2.08366 7.96716H21.917V2.95464C21.917 2.70035 21.8353 2.49139 21.6719 2.32776C21.5083 2.16438 21.2993 2.08268 21.045 2.08268H2.95562C2.70133 2.08268 2.49237 2.16438 2.32874 2.32776C2.16535 2.49139 2.08366 2.70035 2.08366 2.95464V7.96716ZM9.16416 14.9418H14.8365V9.38383H9.16416V14.9418ZM9.16416 21.916H14.8365V16.3584H9.16416V21.916ZM2.08366 14.9418H7.74749V9.38383H2.08366V14.9418ZM16.2532 14.9418H21.917V9.38383H16.2532V14.9418ZM2.95562 21.916H7.74749V16.3584H2.08366V21.0441C2.08366 21.2983 2.16535 21.5073 2.32874 21.6709C2.49237 21.8343 2.70133 21.916 2.95562 21.916ZM16.2532 21.916H21.045C21.2993 21.916 21.5083 21.8343 21.6719 21.6709C21.8353 21.5073 21.917 21.2983 21.917 21.0441V16.3584H16.2532V21.916Z" fill="white"/>
</svg>
