<svg width="54" height="36" viewBox="0 0 54 36" fill="none" xmlns="http://www.w3.org/2000/svg">
<path d="M49.7931 22.1807C48.6251 21.0129 47.2232 20.1054 45.6796 19.5178C46.6329 18.9305 47.4529 18.1504 48.087 17.2275C48.7211 16.3046 49.1553 15.2594 49.3617 14.1589C49.5681 13.0583 49.5422 11.9268 49.2856 10.8369C49.0289 9.74694 48.5473 8.7227 47.8716 7.82986C47.1958 6.93701 46.3409 6.19529 45.3617 5.65228C44.3824 5.10926 43.3005 4.77696 42.1853 4.67667C41.07 4.57639 39.9462 4.71035 38.8857 5.06995C37.8253 5.42955 36.8518 6.00686 36.0276 6.76482C35.4165 4.85033 34.2125 3.17968 32.5897 1.99424C30.9668 0.80879 29.0092 0.169922 26.9995 0.169922C24.9898 0.169922 23.0322 0.80879 21.4093 1.99424C19.7865 3.17968 18.5826 4.85033 17.9714 6.76482C17.1479 5.99885 16.1728 5.41421 15.1091 5.04871C14.0455 4.68321 12.917 4.54498 11.7966 4.64296C10.6762 4.74094 9.58886 5.07294 8.60482 5.61751C7.62077 6.16208 6.76196 6.90709 6.0839 7.80438C5.40584 8.70167 4.92363 9.73127 4.66843 10.8266C4.41323 11.9219 4.39073 13.0586 4.60239 14.1632C4.81404 15.2678 5.25514 16.3157 5.89716 17.2391C6.53918 18.1625 7.36784 18.9409 8.32956 19.524C6.10758 20.3731 4.19524 21.876 2.84486 23.8342C1.49448 25.7924 0.769518 28.1141 0.765625 30.4928V33.6641C0.765625 33.9252 0.869336 34.1756 1.05394 34.3602C1.23855 34.5448 1.48893 34.6485 1.75 34.6485H13.0714V34.8443C13.0714 34.9736 13.0968 35.1016 13.1462 35.2211C13.1957 35.3405 13.2682 35.4491 13.3596 35.5405C13.451 35.6319 13.5596 35.7044 13.679 35.7539C13.7985 35.8033 13.9265 35.8287 14.0558 35.8286H39.9443C40.0736 35.8287 40.2016 35.8033 40.3211 35.7539C40.4406 35.7044 40.5491 35.6319 40.6405 35.5405C40.732 35.4491 40.8045 35.3405 40.8539 35.2211C40.9034 35.1016 40.9288 34.9736 40.9287 34.8443V34.6491H52.2501C52.5112 34.6491 52.7616 34.5454 52.9462 34.3608C53.1308 34.1762 53.2345 33.9258 53.2345 33.6647V30.4922C53.239 28.9481 52.9372 27.4184 52.3464 25.9917C51.7557 24.565 50.8879 23.2697 49.7931 22.1807ZM41.4816 6.61576C42.6317 6.61966 43.7569 6.95065 44.7259 7.57008C45.6948 8.1895 46.4676 9.07181 46.9539 10.114C47.4403 11.1561 47.6201 12.3151 47.4724 13.4557C47.3247 14.5962 46.8556 15.6712 46.1198 16.5551C45.3841 17.439 44.4121 18.0954 43.3173 18.4475C42.2225 18.7997 41.0501 18.8332 39.937 18.544C38.8239 18.2548 37.816 17.6549 37.031 16.8144C36.2461 15.9739 35.7164 14.9274 35.5039 13.7972C36.1469 12.4991 36.4824 11.0704 36.4844 9.62176C36.4844 9.49745 36.4743 9.3782 36.4692 9.25501C37.0262 8.43981 37.7741 7.77317 38.6478 7.31317C39.5214 6.85316 40.4943 6.61374 41.4816 6.61576ZM36.1171 20.0359C34.8581 19.0093 33.4175 18.2283 31.8702 17.7336C32.7023 17.2356 33.453 16.6128 34.096 15.8869C34.7637 17.3934 35.8754 18.6602 37.2826 19.5178C36.8848 19.6689 36.4957 19.8419 36.1171 20.0359ZM27.0001 2.13657C28.8869 2.14034 30.7036 2.85213 32.0909 4.13112C33.4781 5.41012 34.3348 7.16317 34.4914 9.04351C34.5078 9.2342 34.5156 9.4277 34.5156 9.62176C34.5156 11.615 33.7238 13.5266 32.3144 14.9361C30.9049 16.3455 28.9933 17.1373 27.0001 17.1373C25.0068 17.1373 23.0952 16.3455 21.6858 14.9361C20.2763 13.5266 19.4845 11.615 19.4845 9.62176C19.4845 9.4277 19.4924 9.2342 19.5092 9.03563C19.6674 7.15666 20.5247 5.40539 21.9117 4.12797C23.2987 2.85055 25.1144 2.13993 27.0001 2.13657ZM17.8831 20.0359C17.5044 19.8418 17.1153 19.6688 16.7176 19.5178C18.125 18.6596 19.2368 17.392 19.9041 15.8846C20.5471 16.6105 21.2978 17.2334 22.1299 17.7313C20.5825 18.2267 19.1418 19.0085 17.8831 20.0359ZM6.42888 12.6773C6.43403 11.3803 6.85333 10.119 7.62565 9.07709C8.39797 8.0352 9.48291 7.26726 10.7223 6.88523C11.9617 6.50321 13.2907 6.52708 14.5156 6.95336C15.7404 7.37965 16.7971 8.18606 17.5315 9.25501C17.5264 9.37764 17.5158 9.49914 17.5158 9.62176C17.5176 11.0704 17.8531 12.4991 18.4962 13.7972C18.2118 15.2833 17.3842 16.6102 16.1748 17.5193C14.9654 18.4284 13.4607 18.8546 11.9542 18.7148C10.4476 18.5749 9.04713 17.8791 8.02565 16.763C7.00418 15.6468 6.43494 14.1903 6.42888 12.6773ZM2.73438 32.6803V30.4922C2.73468 28.8751 3.13564 27.2833 3.90141 25.8591C4.66718 24.4348 5.77391 23.2225 7.12267 22.3305C8.47143 21.4384 10.0202 20.8945 11.6305 20.7472C13.2409 20.5999 14.8626 20.854 16.3508 21.4866C14.2412 23.87 13.075 26.942 13.0714 30.1249V32.6803H2.73438ZM38.9594 33.8616H15.0402V30.1266C15.04 28.6751 15.3258 27.2377 15.8812 25.8967C16.4366 24.5556 17.2507 23.3371 18.277 22.3107C19.3034 21.2843 20.5219 20.4701 21.8629 19.9147C23.2039 19.3592 24.6412 19.0734 26.0928 19.0735H27.9074C29.3589 19.0732 30.7963 19.359 32.1374 19.9144C33.4785 20.4698 34.697 21.2839 35.7234 22.3104C36.7498 23.3368 37.5639 24.5554 38.1192 25.8965C38.6746 27.2376 38.9602 28.675 38.9599 30.1266L38.9594 33.8616ZM51.2652 32.6803H40.9287V30.1266C40.9254 26.9432 39.7594 23.8707 37.6499 21.4866C39.138 20.8529 40.76 20.598 42.3707 20.7448C43.9814 20.8916 45.5306 21.4355 46.8796 22.3278C48.2287 23.22 49.3354 24.4328 50.1009 25.8576C50.8663 27.2824 51.2665 28.8748 51.2658 30.4922L51.2652 32.6803Z" fill="#1B1E6D"/>
</svg>
